# XSI Wavefront OBJ Export v3.0
# File Created: Thu Nov 08 15:38:36 2012
# XSI Version: 9.5.184.0
o cube
# Hierarchy (from self to top father)
g cube

#begin 8 vertices
v -0.476500 -0.025974 -5.147233
v 0.476500 -0.025974 -5.147233
v -0.476500 0.194921 -5.147233
v 0.476500 0.194921 -5.147233
v -0.476500 -0.025974 -4.852767
v 0.476500 -0.025974 -4.852767
v -0.476500 0.194921 -4.852767
v 0.476500 0.194921 -4.852767
#end 8 vertices

#begin 24 normals
vn 0.000000 -0.000000 -1.000000
vn 0.000000 -0.000000 -1.000000
vn 0.000000 -0.000000 -1.000000
vn 0.000000 -0.000000 -1.000000
vn -0.000000 -1.000000 0.000000
vn -0.000000 -1.000000 0.000000
vn -0.000000 -1.000000 0.000000
vn -0.000000 -1.000000 0.000000
vn -1.000000 0.000000 -0.000000
vn -1.000000 0.000000 -0.000000
vn -1.000000 0.000000 -0.000000
vn -1.000000 0.000000 -0.000000
vn 1.000000 0.000000 0.000000
vn 1.000000 0.000000 0.000000
vn 1.000000 0.000000 0.000000
vn 1.000000 0.000000 0.000000
vn 0.000000 1.000000 0.000000
vn 0.000000 1.000000 0.000000
vn 0.000000 1.000000 0.000000
vn 0.000000 1.000000 0.000000
vn 0.000000 0.000000 1.000000
vn 0.000000 0.000000 1.000000
vn 0.000000 0.000000 1.000000
vn 0.000000 0.000000 1.000000
#end 24 vertex normals

#begin 6 faces
f 1//1 3//2 4//3 2//4 
f 1//5 2//6 6//7 5//8 
f 1//9 5//10 7//11 3//12 
f 2//13 4//14 8//15 6//16 
f 3//17 7//18 8//19 4//20 
f 5//21 6//22 8//23 7//24 
#end 6 faces
