# XSI Wavefront OBJ Export v3.0
# File Created: Thu Nov 08 15:38:36 2012
# XSI Version: 9.5.184.0
o dbb_diamond
# Hierarchy (from self to top father)
g dbb_diamond

#begin 8 vertices
v -0.000000 0.000000 -12.917348
v 6.590488 0.000000 -4.934325
v -0.000000 0.000000 -11.524813
v -7.983023 0.000000 -4.934325
v 0.000000 0.000000 3.048698
v -6.590488 0.000000 -4.934325
v 0.000000 0.000000 1.656163
v 7.983023 0.000000 -4.934325
#end 8 vertices

#begin 16 normals
vn 0.000000 1.000000 0.000000
vn 0.000000 1.000000 0.000000
vn 0.000000 1.000000 0.000000
vn 0.000000 1.000000 0.000000
vn 0.000000 1.000000 0.000000
vn 0.000000 1.000000 0.000000
vn 0.000000 1.000000 0.000000
vn 0.000000 1.000000 0.000000
vn 0.000000 1.000000 0.000000
vn 0.000000 1.000000 0.000000
vn 0.000000 1.000000 0.000000
vn 0.000000 1.000000 0.000000
vn 0.000000 1.000000 0.000000
vn 0.000000 1.000000 0.000000
vn 0.000000 1.000000 0.000000
vn 0.000000 1.000000 0.000000
#end 16 vertex normals

#begin 4 faces
f 1//4 3//3 2//2 8//1 
f 5//14 7//13 6//11 4//6 
f 8//9 2//8 7//7 5//5 
f 4//16 6//15 3//12 1//10 
#end 4 faces
